Coordinates
version=1
nRows=7
nColumns=40
inDegrees=yes

Units are S.I. units (second, meters, Newtons, ...)
If the header above contains a line with 'inDegrees', this indicates whether rotational values are in degrees (yes) or radians (no).

endheader
time	pelvis_tilt	pelvis_list	pelvis_rotation	pelvis_tx	pelvis_ty	pelvis_tz	hip_flexion_r	hip_adduction_r	hip_rotation_r	knee_angle_r	knee_angle_r_beta	ankle_angle_r	subtalar_angle_r	mtp_angle_r	hip_flexion_l	hip_adduction_l	hip_rotation_l	knee_angle_l	knee_angle_l_beta	ankle_angle_l	subtalar_angle_l	mtp_angle_l	lumbar_extension	lumbar_bending	lumbar_rotation	arm_flex_r	arm_add_r	arm_rot_r	elbow_flex_r	pro_sup_r	wrist_flex_r	wrist_dev_r	arm_flex_l	arm_add_l	arm_rot_l	elbow_flex_l	pro_sup_l	wrist_flex_l	wrist_dev_l
      0.35000000	     20.75866290	     -3.15520238	      1.80611116	     -0.80906715	      0.91015739	      0.24935213	    -18.97950788	      6.93774840	     -3.83275616	     10.98015292	      0.19163982	      7.84552561	      0.00000000	      0.00000000	      0.70311004	     -6.92998824	     -4.97492846	     47.63217617	      0.83133830	      5.96781758	      0.00000000	      0.00000000	    -40.40004143	      3.61791647	      5.94943035	      3.86393693	     -5.74958857	     -8.45207812	     38.04537382	     88.32002488	     -8.29196517	      2.24597824	      3.71232327	     -4.47028501	      6.67819575	     29.26439705	     89.03646524	    -21.29587596	     -1.98058691
      0.36000000	     21.03265124	     -2.86868365	      1.25836829	     -0.79845215	      0.91036615	      0.25034220	    -20.42427872	      6.55111852	     -3.22064267	     10.23822742	      0.17869078	      8.35134997	      0.00000000	      0.00000000	      1.01502396	     -6.47066693	     -5.56085212	     45.14969350	      0.78801081	      6.05493805	      0.00000000	      0.00000000	    -40.73830166	      2.90787221	      6.20466276	      4.23640033	     -5.89459755	     -7.93342779	     38.84540091	     88.42387684	     -8.02666084	      2.36866795	      3.15581977	     -4.31616345	      5.67677373	     29.12639495	     89.07241614	    -21.30855019	     -2.19094014
      0.37000000	     20.99769341	     -2.78051062	      1.07173740	     -0.78808033	      0.90980374	      0.25105001	    -21.42044975	      6.48424425	     -2.87499240	      9.66522423	      0.16868999	      8.83271440	      0.00000000	      0.00000000	      1.79630523	     -6.24137314	     -5.73466752	     42.72329284	      0.74566213	      6.11444670	      0.00000000	      0.00000000	    -40.77676750	      2.58018767	      6.40134534	      4.60631078	     -5.98750591	     -7.48626657	     39.59766247	     88.41809499	     -7.84213981	      2.43110448	      2.71087998	     -4.20937940	      4.90333065	     28.92671036	     89.05705180	    -21.28727605	     -2.25066441
      0.38000000	     20.95234069	     -2.71500910	      0.88318583	     -0.77768705	      0.90903639	      0.25153847	    -22.38469884	      6.41716073	     -2.54908865	      9.13950292	      0.15951442	      9.27363775	      0.00000000	      0.00000000	      2.51508465	     -6.00294006	     -5.87137973	     40.17499211	      0.70118589	      6.05619710	      0.00000000	      0.00000000	    -40.80266867	      2.29394213	      6.57345390	      4.97487975	     -6.11891950	     -7.00865251	     40.36785311	     88.40662683	     -7.67613527	      2.47095938	      2.25187794	     -4.08970843	      4.11987466	     28.73678082	     89.04083878	    -21.24507554	     -2.27649079
      0.39000000	     20.83742498	     -2.69138939	      0.77431837	     -0.76741450	      0.90796197	      0.25183451	    -23.23431132	      6.40347206	     -2.32729852	      8.67393610	      0.15138874	      9.74230493	      0.00000000	      0.00000000	      3.28663578	     -5.78522138	     -5.81952877	     37.58934528	      0.65605784	      6.02319602	      0.00000000	      0.00000000	    -40.76499037	      2.11279249	      6.72394074	      5.34570315	     -6.23038972	     -6.60906291	     41.14766513	     88.39473960	     -7.56126677	      2.44359380	      1.86733148	     -3.95964170	      3.47360022	     28.42239244	     89.01902475	    -21.23870898	     -2.24792367
      0.40000000	     20.78132435	     -2.62885010	      0.66125873	     -0.75702242	      0.90689193	      0.25200789	    -24.13503573	      6.33951728	     -2.12734404	      8.25657079	      0.14410435	     10.19926581	      0.00000000	      0.00000000	      3.85318327	     -5.50714674	     -5.80698401	     34.81534116	      0.60764233	      5.86917154	      0.00000000	      0.00000000	    -40.79277794	      1.88507853	      6.84976804	      5.70464372	     -6.35594954	     -6.18015702	     41.87904234	     88.37239053	     -7.44772475	      2.43317749	      1.45720910	     -3.82738872	      2.78994239	     28.17618083	     89.00099129	    -21.22425478	     -2.23576692
      0.41000000	     20.87657143	     -2.47328085	      0.42670527	     -0.74660792	      0.90598005	      0.25227891	    -25.21126380	      6.12153472	     -2.01155388	      7.81619736	      0.13641838	     10.64941574	      0.00000000	      0.00000000	      4.06445411	     -5.16390659	     -6.13708734	     31.84296455	      0.55576457	      5.49039634	      0.00000000	      0.00000000	    -40.98830136	      1.52245899	      6.87221440	      6.18415095	     -6.44573645	     -5.68362489	     42.51278586	     88.36573542	     -7.32399582	      2.51272173	      0.91234905	     -3.73619934	      1.95516979	     28.16460921	     88.99858803	    -21.12655347	     -2.27065834
